<svg xmlns="http://www.w3.org/2000/svg" xmlns:xlink="http://www.w3.org/1999/xlink" width="500" zoomAndPan="magnify" viewBox="0 0 375 374.999991" height="500" preserveAspectRatio="xMidYMid meet" version="1.0"><defs><clipPath id="8e802f1d04"><path d="M 130.03125 118 L 191 118 L 191 262.5 L 130.03125 262.5 Z M 130.03125 118 " clip-rule="nonzero"/></clipPath><clipPath id="f80524548c"><path d="M 167 112.5 L 220 112.5 L 220 261 L 167 261 Z M 167 112.5 " clip-rule="nonzero"/></clipPath><clipPath id="392b90d8e7"><path d="M 182 113 L 244.78125 113 L 244.78125 193 L 182 193 Z M 182 113 " clip-rule="nonzero"/></clipPath><clipPath id="4f6bbe6b88"><path d="M 11.921875 11.921875 L 362.921875 11.921875 L 362.921875 362.921875 L 11.921875 362.921875 Z M 11.921875 11.921875 " clip-rule="nonzero"/></clipPath></defs><rect x="-37.5" width="450" fill="#ffffff" y="-37.499999" height="449.999989" fill-opacity="1"/><rect x="-37.5" width="450" fill="#c9d6ff" y="-37.499999" height="449.999989" fill-opacity="1"/><g clip-path="url(#8e802f1d04)"><path fill="#000000" d="M 173.394531 118.644531 C 172.460938 119.152344 171.5625 119.710938 170.71875 120.324219 C 169.875 120.9375 169.078125 121.605469 168.328125 122.3125 C 166.832031 123.738281 165.519531 125.328125 164.355469 127.023438 C 163.773438 127.871094 163.230469 128.742188 162.710938 129.632812 C 162.449219 130.078125 162.199219 130.53125 161.957031 130.984375 C 161.707031 131.4375 161.46875 131.894531 161.238281 132.355469 C 160.773438 133.28125 160.328125 134.21875 159.902344 135.164062 C 159.480469 136.113281 159.070312 137.070312 158.675781 138.035156 C 158.476562 138.519531 158.285156 139.003906 158.09375 139.492188 C 157.898438 139.976562 157.707031 140.464844 157.519531 140.953125 L 156.960938 142.433594 C 156.777344 142.933594 156.582031 143.429688 156.390625 143.929688 C 155.621094 145.925781 154.792969 147.910156 153.890625 149.878906 C 152.972656 151.839844 151.984375 153.78125 150.847656 155.652344 C 149.707031 157.523438 148.457031 159.339844 147.03125 161.023438 C 145.605469 162.710938 144.039062 164.285156 142.296875 165.648438 C 142.1875 165.734375 142.082031 165.824219 141.972656 165.90625 L 141.640625 166.15625 C 141.417969 166.320312 141.199219 166.488281 140.96875 166.640625 C 140.746094 166.796875 140.511719 166.964844 140.292969 167.109375 L 139.628906 167.554688 C 138.753906 168.148438 137.875 168.738281 137.027344 169.351562 C 136.601562 169.65625 136.179688 169.96875 135.765625 170.28125 C 135.355469 170.601562 134.953125 170.925781 134.566406 171.261719 C 134.175781 171.59375 133.796875 171.933594 133.449219 172.292969 C 133.097656 172.648438 132.773438 173.019531 132.507812 173.40625 C 132.238281 173.789062 132.03125 174.191406 131.933594 174.554688 C 131.886719 174.738281 131.871094 174.910156 131.886719 175.0625 C 131.894531 175.214844 131.9375 175.351562 132.007812 175.488281 C 132.140625 175.753906 132.410156 176.023438 132.765625 176.257812 C 133.121094 176.496094 133.554688 176.707031 134.019531 176.917969 C 134.488281 177.128906 134.992188 177.339844 135.515625 177.613281 C 136.039062 177.890625 136.601562 178.230469 137.109375 178.753906 C 137.363281 179.015625 137.59375 179.328125 137.777344 179.667969 C 137.957031 180.011719 138.085938 180.378906 138.164062 180.746094 C 138.242188 181.113281 138.269531 181.476562 138.265625 181.820312 C 138.261719 182.164062 138.226562 182.496094 138.175781 182.8125 C 138.148438 182.972656 138.117188 183.125 138.082031 183.28125 C 138.0625 183.355469 138.046875 183.429688 138.027344 183.507812 C 138.007812 183.582031 137.992188 183.644531 137.957031 183.757812 C 137.835938 184.160156 137.652344 184.503906 137.460938 184.804688 C 137.074219 185.402344 136.648438 185.832031 136.28125 186.222656 C 136.097656 186.417969 135.929688 186.597656 135.785156 186.765625 C 135.640625 186.933594 135.519531 187.089844 135.445312 187.214844 C 135.367188 187.339844 135.34375 187.425781 135.339844 187.457031 C 135.335938 187.476562 135.339844 187.484375 135.339844 187.496094 C 135.339844 187.5 135.339844 187.507812 135.34375 187.519531 C 135.347656 187.523438 135.347656 187.53125 135.347656 187.535156 L 135.351562 187.546875 L 135.363281 187.578125 C 135.476562 187.933594 135.632812 188.242188 135.890625 188.628906 C 136.019531 188.824219 136.175781 189.039062 136.34375 189.300781 C 136.511719 189.5625 136.691406 189.871094 136.839844 190.222656 C 136.988281 190.574219 137.089844 190.957031 137.144531 191.332031 C 137.171875 191.519531 137.1875 191.707031 137.191406 191.886719 L 137.195312 192.019531 L 137.195312 192.144531 C 137.195312 192.226562 137.191406 192.316406 137.1875 192.398438 C 137.167969 192.746094 137.125 193.148438 136.957031 193.605469 C 136.875 193.828125 136.757812 194.054688 136.636719 194.234375 C 136.515625 194.417969 136.402344 194.558594 136.3125 194.671875 C 136.128906 194.894531 136.015625 195.03125 135.90625 195.191406 C 135.855469 195.273438 135.804688 195.355469 135.757812 195.441406 C 135.710938 195.519531 135.648438 195.648438 135.644531 195.660156 C 135.613281 195.730469 135.609375 195.773438 135.609375 195.851562 C 135.613281 195.933594 135.632812 196.050781 135.6875 196.203125 C 135.800781 196.511719 136.03125 196.90625 136.308594 197.332031 C 136.582031 197.761719 136.902344 198.226562 137.203125 198.792969 C 137.28125 198.933594 137.355469 199.082031 137.421875 199.242188 C 137.492188 199.402344 137.558594 199.570312 137.613281 199.738281 C 137.730469 200.074219 137.800781 200.421875 137.851562 200.769531 C 137.945312 201.460938 137.914062 202.132812 137.828125 202.75 C 137.644531 203.988281 137.277344 205.050781 136.988281 206.042969 C 136.695312 207.03125 136.480469 207.949219 136.484375 208.761719 C 136.484375 209.589844 136.683594 210.402344 137.066406 211.164062 C 137.445312 211.925781 138 212.632812 138.660156 213.25 C 139.320312 213.871094 140.089844 214.402344 140.910156 214.835938 C 141.734375 215.269531 142.613281 215.605469 143.507812 215.828125 C 143.734375 215.882812 143.957031 215.929688 144.183594 215.972656 C 144.296875 215.992188 144.410156 216.011719 144.519531 216.027344 L 144.878906 216.074219 C 145.355469 216.132812 145.839844 216.171875 146.328125 216.191406 C 148.285156 216.285156 150.3125 216.089844 152.398438 215.847656 C 154.488281 215.617188 156.652344 215.335938 158.90625 215.308594 C 163.429688 215.246094 167.921875 216.238281 172.011719 218.066406 C 174.054688 218.984375 176 220.109375 177.816406 221.414062 C 178.722656 222.0625 179.59375 222.769531 180.425781 223.511719 C 181.257812 224.257812 182.058594 225.035156 182.804688 225.863281 C 183.554688 226.695312 184.261719 227.558594 184.917969 228.460938 C 185.570312 229.363281 186.179688 230.300781 186.726562 231.269531 C 187.824219 233.210938 188.703125 235.265625 189.335938 237.382812 C 190.613281 241.613281 190.980469 246.078125 190.445312 250.394531 C 190.316406 251.476562 190.121094 252.542969 189.878906 253.597656 C 189.636719 254.652344 189.34375 255.695312 188.980469 256.710938 C 188.621094 257.726562 188.222656 258.726562 187.753906 259.695312 C 187.28125 260.65625 186.773438 261.597656 186.199219 262.496094 C 187.078125 260.554688 187.773438 258.546875 188.242188 256.496094 C 188.363281 255.984375 188.460938 255.46875 188.5625 254.957031 C 188.648438 254.4375 188.738281 253.921875 188.796875 253.402344 C 188.929688 252.367188 189.027344 251.324219 189.050781 250.285156 C 189.191406 246.125 188.519531 241.972656 187.089844 238.140625 C 186.730469 237.183594 186.328125 236.242188 185.871094 235.335938 C 185.417969 234.425781 184.925781 233.539062 184.378906 232.6875 C 183.828125 231.839844 183.238281 231.019531 182.609375 230.226562 C 181.976562 229.4375 181.296875 228.6875 180.589844 227.972656 C 179.882812 227.25 179.128906 226.574219 178.351562 225.933594 C 177.96875 225.609375 177.5625 225.308594 177.164062 225 L 176.550781 224.558594 C 176.347656 224.410156 176.132812 224.277344 175.925781 224.132812 C 175.089844 223.574219 174.230469 223.046875 173.34375 222.574219 C 172.457031 222.101562 171.546875 221.671875 170.621094 221.28125 C 166.917969 219.738281 162.925781 218.917969 158.953125 218.957031 C 157.957031 218.960938 156.941406 219.023438 155.910156 219.109375 C 154.878906 219.199219 153.832031 219.304688 152.765625 219.40625 C 150.632812 219.601562 148.414062 219.777344 146.125 219.613281 C 145.554688 219.574219 144.980469 219.511719 144.410156 219.421875 L 143.976562 219.351562 C 143.828125 219.324219 143.679688 219.296875 143.53125 219.265625 C 143.238281 219.203125 142.945312 219.128906 142.65625 219.046875 C 141.5 218.726562 140.394531 218.261719 139.355469 217.675781 C 138.316406 217.085938 137.34375 216.367188 136.476562 215.511719 C 135.613281 214.652344 134.859375 213.640625 134.316406 212.484375 C 133.773438 211.332031 133.476562 210.019531 133.511719 208.71875 C 133.527344 208.066406 133.628906 207.433594 133.757812 206.851562 C 133.890625 206.265625 134.054688 205.722656 134.21875 205.199219 C 134.542969 204.15625 134.875 203.199219 135.007812 202.332031 C 135.078125 201.898438 135.097656 201.5 135.050781 201.136719 C 135.027344 200.953125 134.996094 200.777344 134.941406 200.609375 C 134.914062 200.523438 134.886719 200.445312 134.851562 200.359375 C 134.816406 200.277344 134.773438 200.183594 134.722656 200.089844 C 134.535156 199.714844 134.257812 199.296875 133.960938 198.832031 C 133.667969 198.363281 133.335938 197.847656 133.082031 197.15625 C 132.953125 196.804688 132.851562 196.402344 132.832031 195.949219 C 132.816406 195.5 132.898438 195.007812 133.082031 194.589844 C 133.179688 194.355469 133.242188 194.246094 133.324219 194.09375 C 133.40625 193.945312 133.492188 193.800781 133.585938 193.660156 C 133.765625 193.375 133.988281 193.101562 134.144531 192.910156 C 134.21875 192.816406 134.265625 192.75 134.292969 192.707031 C 134.320312 192.667969 134.320312 192.65625 134.332031 192.628906 C 134.347656 192.585938 134.371094 192.453125 134.378906 192.269531 C 134.390625 191.855469 134.351562 191.605469 134.234375 191.324219 C 134.171875 191.1875 134.085938 191.035156 133.964844 190.847656 L 133.527344 190.199219 C 133.363281 189.949219 133.191406 189.667969 133.039062 189.363281 C 132.882812 189.058594 132.757812 188.730469 132.660156 188.402344 L 132.640625 188.335938 L 132.617188 188.25 C 132.601562 188.191406 132.589844 188.132812 132.578125 188.070312 C 132.550781 187.953125 132.535156 187.828125 132.527344 187.703125 C 132.511719 187.449219 132.523438 187.1875 132.570312 186.945312 C 132.664062 186.453125 132.863281 186.046875 133.066406 185.722656 C 133.277344 185.398438 133.492188 185.140625 133.703125 184.910156 C 133.910156 184.679688 134.109375 184.480469 134.296875 184.292969 C 134.667969 183.921875 134.988281 183.585938 135.191406 183.296875 C 135.292969 183.152344 135.359375 183.027344 135.398438 182.917969 C 135.40625 182.90625 135.425781 182.839844 135.441406 182.789062 C 135.460938 182.734375 135.472656 182.683594 135.488281 182.632812 C 135.519531 182.523438 135.546875 182.421875 135.570312 182.316406 C 135.660156 181.90625 135.695312 181.523438 135.652344 181.214844 C 135.613281 180.902344 135.515625 180.65625 135.308594 180.386719 C 135.101562 180.121094 134.773438 179.859375 134.378906 179.605469 C 133.980469 179.347656 133.527344 179.101562 133.046875 178.832031 C 132.566406 178.558594 132.0625 178.269531 131.566406 177.871094 C 131.316406 177.671875 131.070312 177.445312 130.847656 177.179688 C 130.625 176.910156 130.421875 176.597656 130.277344 176.246094 C 130.128906 175.898438 130.050781 175.503906 130.042969 175.128906 C 130.035156 174.75 130.097656 174.386719 130.199219 174.058594 C 130.402344 173.402344 130.730469 172.867188 131.074219 172.382812 C 131.773438 171.425781 132.574219 170.652344 133.390625 169.914062 C 133.800781 169.550781 134.21875 169.199219 134.640625 168.855469 C 135.0625 168.515625 135.484375 168.179688 135.910156 167.851562 C 136.765625 167.195312 137.621094 166.550781 138.472656 165.917969 L 139.109375 165.4375 C 139.324219 165.277344 139.511719 165.121094 139.714844 164.960938 C 139.917969 164.808594 140.113281 164.640625 140.304688 164.476562 L 140.597656 164.230469 C 140.695312 164.144531 140.785156 164.054688 140.882812 163.96875 C 142.394531 162.597656 143.734375 161.042969 144.917969 159.375 C 146.109375 157.710938 147.152344 155.9375 148.101562 154.105469 C 149.050781 152.273438 149.914062 150.382812 150.742188 148.464844 C 151.570312 146.550781 152.351562 144.601562 153.148438 142.640625 C 153.546875 141.660156 153.941406 140.683594 154.359375 139.683594 C 154.566406 139.1875 154.777344 138.691406 154.992188 138.195312 C 155.210938 137.699219 155.433594 137.207031 155.664062 136.71875 C 156.117188 135.734375 156.589844 134.757812 157.097656 133.796875 C 157.605469 132.832031 158.132812 131.878906 158.703125 130.945312 C 158.984375 130.476562 159.273438 130.015625 159.574219 129.554688 C 159.875 129.097656 160.1875 128.644531 160.503906 128.199219 C 161.136719 127.304688 161.820312 126.4375 162.539062 125.605469 C 163.261719 124.773438 164.03125 123.984375 164.84375 123.238281 C 165.25 122.867188 165.667969 122.511719 166.097656 122.164062 C 166.527344 121.824219 166.972656 121.496094 167.421875 121.183594 C 168.328125 120.566406 169.28125 120.015625 170.265625 119.550781 C 171.253906 119.089844 172.273438 118.714844 173.316406 118.445312 L 173.394531 118.644531 " fill-opacity="1" fill-rule="nonzero"/></g><path fill="#000000" d="M 141.238281 145.097656 C 141.398438 146.265625 141.71875 147.40625 142.140625 148.492188 C 142.566406 149.574219 143.101562 150.609375 143.769531 151.535156 C 144.429688 152.460938 145.21875 153.277344 146.105469 153.933594 L 146.273438 154.058594 L 146.445312 154.171875 C 146.5625 154.25 146.671875 154.328125 146.789062 154.398438 C 147.03125 154.535156 147.257812 154.683594 147.507812 154.796875 C 147.992188 155.054688 148.503906 155.242188 149.015625 155.417969 L 148.351562 157.109375 C 147.777344 156.828125 147.214844 156.53125 146.695312 156.164062 C 146.425781 155.996094 146.183594 155.792969 145.929688 155.601562 C 145.808594 155.503906 145.691406 155.394531 145.570312 155.292969 L 145.394531 155.140625 L 145.226562 154.972656 C 144.316406 154.105469 143.574219 153.09375 142.996094 152.011719 C 142.414062 150.9375 142 149.789062 141.707031 148.628906 C 141.421875 147.464844 141.246094 146.28125 141.238281 145.097656 " fill-opacity="1" fill-rule="nonzero"/><path fill="#000000" d="M 139.902344 146.722656 C 140.117188 147.886719 140.488281 149.007812 140.957031 150.074219 C 141.429688 151.136719 142.007812 152.148438 142.714844 153.042969 C 143.417969 153.9375 144.242188 154.71875 145.160156 155.335938 L 145.332031 155.453125 L 145.507812 155.558594 C 145.625 155.628906 145.742188 155.703125 145.863281 155.769531 C 146.105469 155.894531 146.34375 156.03125 146.597656 156.136719 C 147.089844 156.371094 147.613281 156.535156 148.132812 156.6875 L 147.542969 158.40625 C 146.957031 158.152344 146.382812 157.882812 145.84375 157.539062 C 145.570312 157.378906 145.316406 157.1875 145.058594 157.007812 C 144.929688 156.914062 144.808594 156.816406 144.683594 156.71875 L 144.5 156.570312 L 144.324219 156.414062 C 143.378906 155.582031 142.589844 154.605469 141.96875 153.554688 C 141.335938 152.503906 140.871094 151.378906 140.527344 150.230469 C 140.191406 149.082031 139.964844 147.90625 139.902344 146.722656 " fill-opacity="1" fill-rule="nonzero"/><path fill="#000000" d="M 142.328125 144.371094 C 142.488281 145.539062 142.808594 146.679688 143.230469 147.765625 C 143.65625 148.847656 144.191406 149.882812 144.859375 150.804688 C 145.519531 151.734375 146.308594 152.550781 147.199219 153.207031 L 147.363281 153.332031 L 147.535156 153.445312 C 147.648438 153.519531 147.761719 153.597656 147.878906 153.671875 C 148.121094 153.808594 148.347656 153.953125 148.597656 154.070312 C 149.082031 154.324219 149.59375 154.511719 150.105469 154.6875 L 149.441406 156.382812 C 148.867188 156.097656 148.304688 155.804688 147.785156 155.4375 C 147.515625 155.265625 147.273438 155.066406 147.019531 154.875 C 146.898438 154.773438 146.78125 154.667969 146.660156 154.566406 L 146.484375 154.410156 L 146.316406 154.246094 C 145.40625 153.375 144.664062 152.363281 144.085938 151.285156 C 143.503906 150.210938 143.089844 149.0625 142.796875 147.902344 C 142.511719 146.738281 142.335938 145.554688 142.328125 144.371094 " fill-opacity="1" fill-rule="nonzero"/><g clip-path="url(#f80524548c)"><path fill="#000000" d="M 179.195312 112.515625 C 177.453125 115.585938 175.964844 118.773438 174.753906 122.046875 C 173.550781 125.320312 172.613281 128.679688 171.972656 132.078125 L 171.847656 132.714844 L 171.542969 134.636719 C 171.464844 135.0625 171.421875 135.492188 171.371094 135.921875 L 171.222656 137.207031 C 171.191406 137.417969 171.179688 137.632812 171.164062 137.851562 L 171.113281 138.496094 L 171.007812 139.78125 L 170.957031 141.074219 C 170.945312 141.5 170.914062 141.929688 170.914062 142.359375 L 170.917969 143.648438 C 170.921875 144.078125 170.910156 144.507812 170.9375 144.9375 L 170.988281 146.222656 L 171.011719 146.863281 L 171.0625 147.503906 C 171.140625 148.355469 171.1875 149.210938 171.308594 150.058594 L 171.46875 151.332031 C 171.492188 151.542969 171.527344 151.753906 171.5625 151.964844 L 171.664062 152.597656 C 172.773438 159.34375 175.03125 165.882812 178.347656 171.816406 C 179.1875 173.292969 180.058594 174.753906 181.015625 176.152344 L 181.730469 177.203125 C 181.847656 177.382812 181.976562 177.550781 182.105469 177.71875 L 182.484375 178.230469 L 183.246094 179.25 L 184.046875 180.234375 C 184.316406 180.5625 184.574219 180.898438 184.851562 181.21875 L 185.6875 182.171875 C 186.234375 182.816406 186.832031 183.421875 187.417969 184.042969 C 187.566406 184.191406 187.707031 184.351562 187.859375 184.5 L 188.316406 184.949219 L 189.230469 185.851562 C 189.535156 186.148438 189.855469 186.4375 190.167969 186.730469 C 190.484375 187.023438 190.792969 187.320312 191.113281 187.609375 C 193.660156 189.9375 196.34375 192.175781 199.03125 194.480469 C 201.703125 196.796875 204.394531 199.171875 206.898438 201.800781 L 207.832031 202.792969 C 208.136719 203.128906 208.4375 203.476562 208.738281 203.816406 L 209.1875 204.332031 L 209.414062 204.585938 L 209.628906 204.855469 L 210.492188 205.925781 C 210.636719 206.105469 210.78125 206.28125 210.921875 206.460938 L 211.328125 207.019531 L 212.136719 208.136719 C 212.273438 208.320312 212.398438 208.519531 212.523438 208.710938 L 212.902344 209.292969 L 213.277344 209.878906 L 213.980469 211.074219 C 214.097656 211.273438 214.214844 211.472656 214.320312 211.679688 L 214.964844 212.90625 C 215.171875 213.316406 215.359375 213.738281 215.558594 214.15625 C 215.65625 214.363281 215.761719 214.570312 215.847656 214.78125 L 216.113281 215.421875 L 216.375 216.058594 C 216.421875 216.167969 216.464844 216.273438 216.507812 216.378906 L 216.625 216.703125 L 217.097656 218 C 217.371094 218.875 217.664062 219.746094 217.890625 220.636719 C 219.792969 227.722656 219.851562 235.21875 218.183594 242.242188 C 218.09375 242.683594 217.964844 243.117188 217.847656 243.550781 C 217.730469 243.988281 217.617188 244.421875 217.476562 244.851562 C 217.339844 245.28125 217.210938 245.710938 217.070312 246.136719 L 216.609375 247.40625 L 216.496094 247.722656 L 216.367188 248.035156 L 216.113281 248.660156 L 215.855469 249.28125 C 215.769531 249.488281 215.671875 249.691406 215.578125 249.894531 L 215.296875 250.503906 C 215.203125 250.710938 215.117188 250.914062 215.011719 251.113281 L 214.394531 252.304688 C 213.542969 253.878906 212.597656 255.394531 211.554688 256.832031 C 210.492188 258.261719 209.34375 259.617188 208.105469 260.871094 C 209.15625 259.453125 210.128906 257.988281 211 256.472656 C 211.867188 254.953125 212.621094 253.378906 213.296875 251.78125 C 213.960938 250.175781 214.519531 248.535156 214.988281 246.875 L 215.324219 245.621094 C 215.421875 245.203125 215.515625 244.78125 215.613281 244.363281 C 215.714844 243.941406 215.785156 243.519531 215.863281 243.09375 C 215.941406 242.671875 216.03125 242.25 216.085938 241.824219 C 217.148438 235.03125 216.65625 228.042969 214.601562 221.601562 C 214.359375 220.792969 214.050781 220.007812 213.765625 219.214844 L 213.28125 218.050781 L 213.164062 217.757812 C 213.121094 217.660156 213.074219 217.566406 213.03125 217.472656 L 212.765625 216.898438 L 212.5 216.328125 C 212.414062 216.136719 212.3125 215.953125 212.21875 215.765625 C 212.023438 215.394531 211.839844 215.015625 211.640625 214.652344 L 211.015625 213.558594 C 210.917969 213.375 210.804688 213.199219 210.691406 213.023438 L 210.355469 212.492188 L 210.023438 211.964844 L 209.664062 211.449219 L 209.304688 210.9375 C 209.1875 210.765625 209.070312 210.59375 208.9375 210.429688 L 208.167969 209.429688 L 207.785156 208.929688 C 207.652344 208.765625 207.511719 208.609375 207.375 208.445312 L 206.558594 207.480469 L 206.355469 207.238281 L 206.136719 207.003906 L 205.707031 206.539062 C 205.417969 206.226562 205.132812 205.914062 204.84375 205.601562 L 203.941406 204.695312 C 202.738281 203.488281 201.476562 202.320312 200.195312 201.164062 C 199.542969 200.59375 198.894531 200.023438 198.234375 199.457031 C 197.570312 198.890625 196.914062 198.328125 196.238281 197.765625 C 193.570312 195.503906 190.835938 193.246094 188.179688 190.835938 C 187.847656 190.53125 187.523438 190.21875 187.191406 189.914062 C 186.867188 189.601562 186.535156 189.300781 186.214844 188.980469 L 185.25 188.027344 L 184.769531 187.546875 C 184.609375 187.386719 184.457031 187.21875 184.296875 187.050781 C 183.675781 186.390625 183.042969 185.738281 182.453125 185.039062 L 181.554688 184.003906 C 181.257812 183.65625 180.980469 183.292969 180.695312 182.933594 C 180.414062 182.578125 180.128906 182.21875 179.851562 181.859375 L 178.644531 180.195312 C 178.511719 180.011719 178.378906 179.824219 178.253906 179.632812 L 177.5 178.492188 C 176.492188 176.972656 175.574219 175.394531 174.722656 173.785156 C 174.496094 173.386719 174.308594 172.972656 174.105469 172.566406 L 173.5 171.339844 C 173.304688 170.929688 173.128906 170.507812 172.941406 170.09375 L 172.390625 168.84375 L 171.890625 167.574219 L 171.640625 166.941406 C 171.558594 166.726562 171.476562 166.515625 171.40625 166.300781 L 170.960938 165.007812 C 170.816406 164.578125 170.660156 164.152344 170.539062 163.714844 L 170.148438 162.40625 L 169.957031 161.753906 L 169.789062 161.09375 C 169.570312 160.210938 169.328125 159.335938 169.160156 158.441406 L 168.886719 157.105469 C 168.800781 156.660156 168.738281 156.210938 168.660156 155.761719 L 168.445312 154.417969 L 168.28125 153.070312 L 168.203125 152.394531 C 168.175781 152.167969 168.144531 151.945312 168.132812 151.71875 L 168.03125 150.359375 C 167.949219 149.457031 167.949219 148.550781 167.917969 147.644531 L 167.898438 146.964844 L 167.90625 146.289062 L 167.925781 144.929688 C 167.921875 144.480469 167.960938 144.027344 167.984375 143.578125 L 168.066406 142.226562 C 168.328125 138.625 168.964844 135.0625 169.894531 131.601562 C 170.835938 128.136719 172.085938 124.773438 173.644531 121.570312 C 175.199219 118.367188 177.050781 115.320312 179.195312 112.515625 " fill-opacity="1" fill-rule="nonzero"/></g><path fill="#000000" d="M 175.996094 142.476562 C 176.316406 143.464844 176.664062 144.4375 177.054688 145.386719 C 177.453125 146.332031 177.894531 147.253906 178.359375 148.15625 C 178.839844 149.054688 179.351562 149.929688 179.894531 150.78125 C 180.441406 151.628906 181.019531 152.457031 181.625 153.261719 C 184.050781 156.476562 186.902344 159.335938 189.960938 161.949219 C 191.492188 163.257812 193.082031 164.503906 194.699219 165.714844 C 195.511719 166.316406 196.332031 166.898438 197.164062 167.488281 C 197.992188 168.082031 198.835938 168.65625 199.675781 169.238281 C 203.054688 171.542969 206.5 173.828125 209.886719 176.273438 C 210.730469 176.894531 211.578125 177.507812 212.410156 178.152344 C 213.246094 178.785156 214.066406 179.449219 214.890625 180.109375 C 216.519531 181.460938 218.109375 182.871094 219.625 184.375 C 220.367188 185.148438 221.125 185.902344 221.828125 186.710938 C 222.550781 187.496094 223.242188 188.339844 223.898438 189.199219 C 224.550781 190.066406 225.179688 190.945312 225.761719 191.855469 C 226.335938 192.773438 226.882812 193.703125 227.386719 194.65625 C 227.890625 195.613281 228.355469 196.585938 228.769531 197.585938 C 229.175781 198.582031 229.570312 199.589844 229.875 200.625 C 229.960938 200.878906 230.03125 201.140625 230.105469 201.398438 C 230.179688 201.660156 230.257812 201.917969 230.320312 202.179688 L 230.515625 202.964844 L 230.679688 203.753906 C 230.738281 204.019531 230.78125 204.285156 230.824219 204.550781 C 230.871094 204.816406 230.921875 205.082031 230.953125 205.347656 L 231.058594 206.148438 L 231.136719 206.953125 C 231.164062 207.21875 231.171875 207.488281 231.191406 207.757812 C 231.203125 208.023438 231.21875 208.292969 231.21875 208.5625 C 231.222656 208.832031 231.230469 209.097656 231.226562 209.367188 L 231.203125 210.171875 C 231.148438 211.242188 231.042969 212.308594 230.839844 213.351562 C 230.640625 214.398438 230.363281 215.425781 230.015625 216.417969 C 229.652344 217.410156 229.226562 218.367188 228.71875 219.277344 C 228.992188 218.273438 229.21875 217.269531 229.375 216.257812 C 229.527344 215.246094 229.605469 214.234375 229.632812 213.226562 C 229.660156 211.207031 229.449219 209.207031 229.019531 207.265625 C 228.160156 203.378906 226.523438 199.710938 224.417969 196.371094 C 223.363281 194.703125 222.183594 193.117188 220.910156 191.621094 C 220.265625 190.875 219.601562 190.160156 218.898438 189.449219 C 218.21875 188.726562 217.480469 188.054688 216.765625 187.363281 C 215.289062 186.019531 213.761719 184.722656 212.1875 183.46875 C 211.390625 182.851562 210.601562 182.222656 209.78125 181.621094 C 208.980469 181.007812 208.152344 180.410156 207.335938 179.808594 C 206.503906 179.214844 205.679688 178.613281 204.839844 178.023438 L 202.324219 176.242188 C 200.644531 175.046875 198.953125 173.84375 197.28125 172.601562 C 196.449219 171.972656 195.613281 171.351562 194.789062 170.703125 C 193.953125 170.074219 193.136719 169.402344 192.328125 168.730469 C 191.519531 168.050781 190.71875 167.363281 189.9375 166.652344 C 189.160156 165.933594 188.390625 165.207031 187.640625 164.460938 C 184.65625 161.460938 181.933594 158.136719 179.839844 154.429688 C 179.324219 153.496094 178.832031 152.554688 178.398438 151.589844 C 177.972656 150.617188 177.578125 149.632812 177.25 148.628906 C 176.921875 147.625 176.648438 146.605469 176.429688 145.578125 C 176.226562 144.550781 176.074219 143.511719 175.996094 142.476562 " fill-opacity="1" fill-rule="nonzero"/><g clip-path="url(#392b90d8e7)"><path fill="#000000" d="M 183.625 113.570312 C 183.351562 115.824219 183.332031 118.070312 183.554688 120.277344 C 183.777344 122.480469 184.230469 124.648438 184.882812 126.738281 C 186.179688 130.921875 188.214844 134.835938 190.769531 138.324219 C 191.089844 138.761719 191.410156 139.195312 191.753906 139.613281 C 192.097656 140.035156 192.421875 140.46875 192.785156 140.875 C 193.488281 141.703125 194.214844 142.511719 194.964844 143.300781 C 196.472656 144.863281 198.066406 146.355469 199.738281 147.761719 L 201.003906 148.808594 L 202.289062 149.832031 L 203.601562 150.824219 L 204.9375 151.796875 C 206.726562 153.082031 208.558594 154.316406 210.433594 155.503906 C 212.300781 156.699219 214.203125 157.859375 216.128906 159.003906 C 218.039062 160.164062 219.984375 161.296875 221.921875 162.453125 C 223.855469 163.617188 225.804688 164.773438 227.722656 165.996094 C 228.683594 166.601562 229.644531 167.214844 230.59375 167.84375 L 232.015625 168.800781 L 233.425781 169.777344 C 233.890625 170.109375 234.359375 170.4375 234.824219 170.773438 L 236.199219 171.800781 C 237.117188 172.5 238.03125 173.222656 238.910156 174.011719 C 239.789062 174.796875 240.644531 175.628906 241.417969 176.554688 C 242.1875 177.480469 242.890625 178.484375 243.449219 179.574219 C 243.59375 179.84375 243.710938 180.128906 243.835938 180.40625 C 243.902344 180.542969 243.953125 180.6875 244.007812 180.832031 L 244.167969 181.261719 C 244.378906 181.851562 244.523438 182.460938 244.609375 183.070312 C 244.78125 184.289062 244.75 185.519531 244.488281 186.699219 C 244.359375 187.285156 244.183594 187.863281 243.945312 188.414062 C 243.707031 188.960938 243.410156 189.480469 243.058594 189.957031 C 242.355469 190.914062 241.402344 191.667969 240.339844 192.070312 C 241.285156 191.441406 242.023438 190.585938 242.496094 189.609375 C 242.980469 188.644531 243.222656 187.582031 243.285156 186.527344 C 243.34375 185.46875 243.226562 184.410156 242.9375 183.421875 C 242.789062 182.925781 242.617188 182.449219 242.386719 181.996094 L 242.203125 181.652344 C 242.144531 181.539062 242.085938 181.421875 242.015625 181.3125 C 241.878906 181.09375 241.753906 180.867188 241.597656 180.65625 C 240.4375 178.933594 238.84375 177.511719 237.105469 176.238281 C 236.234375 175.605469 235.328125 174.996094 234.394531 174.402344 L 232.980469 173.519531 L 231.554688 172.652344 L 230.121094 171.796875 L 228.671875 170.960938 C 227.707031 170.40625 226.738281 169.851562 225.761719 169.304688 C 223.804688 168.222656 221.84375 167.128906 219.863281 166.046875 C 217.890625 164.960938 215.917969 163.851562 213.945312 162.722656 C 211.980469 161.582031 210.023438 160.410156 208.089844 159.183594 C 206.164062 157.9375 204.257812 156.648438 202.402344 155.273438 C 200.554688 153.886719 198.742188 152.441406 197.023438 150.875 C 195.304688 149.3125 193.652344 147.65625 192.128906 145.878906 C 191.367188 144.992188 190.625 144.085938 189.929688 143.144531 C 189.570312 142.679688 189.246094 142.1875 188.910156 141.710938 C 188.574219 141.234375 188.25 140.738281 187.9375 140.242188 C 185.449219 136.253906 183.648438 131.835938 182.808594 127.242188 C 182.394531 124.945312 182.21875 122.613281 182.34375 120.304688 C 182.464844 117.996094 182.878906 115.714844 183.625 113.570312 " fill-opacity="1" fill-rule="nonzero"/></g><g clip-path="url(#4f6bbe6b88)"><path fill="#28292a" d="M 11.921875 187.421875 C 11.921875 284.347656 90.496094 362.921875 187.421875 362.921875 C 284.347656 362.921875 362.921875 284.347656 362.921875 187.421875 C 362.921875 90.496094 284.347656 11.921875 187.421875 11.921875 C 90.496094 11.921875 11.921875 90.496094 11.921875 187.421875 " fill-opacity="1" fill-rule="nonzero"/></g><path fill="#ffffff" d="M 350.117188 198.519531 L 345.15625 199.773438 C 345.003906 201.476562 344.960938 203.1875 344.707031 204.878906 C 343.917969 203.402344 342.972656 201.9375 342.09375 200.503906 L 337.148438 201.601562 L 340.4375 197.867188 C 339.542969 196.46875 338.667969 195.09375 337.671875 193.738281 L 342.480469 195.488281 L 345.578125 191.5 C 345.511719 193.207031 345.539062 194.914062 345.398438 196.617188 L 350.117188 198.519531 " fill-opacity="1" fill-rule="nonzero"/><path fill="#ffffff" d="M 347.929688 216.347656 L 342.875 217.050781 C 342.609375 218.738281 342.242188 220.40625 341.839844 222.070312 C 341.167969 220.5 340.53125 218.972656 339.761719 217.4375 L 334.730469 217.984375 L 338.378906 214.636719 L 336.117188 210.234375 L 340.648438 212.492188 C 341.902344 211.320312 343.03125 210.105469 344.199219 208.867188 C 344.007812 210.566406 343.765625 212.257812 343.433594 213.933594 L 347.929688 216.347656 " fill-opacity="1" fill-rule="nonzero"/><path fill="#ffffff" d="M 343.804688 233.832031 L 338.722656 233.976562 C 338.222656 235.613281 337.640625 237.21875 337.105469 238.839844 L 335.574219 234.015625 L 330.460938 233.988281 C 331.855469 233.058594 333.195312 232.085938 334.503906 231.078125 L 332.703125 226.4375 L 336.964844 229.1875 C 338.277344 228.144531 339.6875 227.101562 340.9375 225.992188 C 340.566406 227.660156 340.027344 229.285156 339.585938 230.933594 L 343.804688 233.832031 " fill-opacity="1" fill-rule="nonzero"/><path fill="#ffffff" d="M 337.785156 250.761719 L 332.671875 250.328125 L 330.558594 254.992188 L 329.523438 250.007812 L 324.46875 249.421875 L 328.84375 246.996094 L 327.527344 242.164062 L 331.472656 245.378906 L 335.777344 242.636719 L 333.894531 247.40625 L 337.785156 250.761719 " fill-opacity="1" fill-rule="nonzero"/><path fill="#ffffff" d="M 329.875 266.894531 L 324.851562 265.902344 C 323.980469 267.371094 323.183594 268.886719 322.253906 270.320312 C 322.175781 268.644531 321.941406 266.910156 321.769531 265.246094 L 316.824219 264.113281 L 321.40625 262.164062 C 321.222656 260.523438 320.960938 258.875 320.660156 257.230469 L 324.246094 260.871094 L 328.777344 258.597656 L 326.429688 263.15625 L 329.875 266.894531 " fill-opacity="1" fill-rule="nonzero"/><path fill="#ffffff" d="M 320.253906 282.0625 L 315.382812 280.535156 C 314.421875 281.945312 313.351562 283.277344 312.296875 284.621094 C 312.347656 282.902344 312.445312 281.261719 312.40625 279.550781 L 307.613281 277.878906 C 309.214844 277.445312 310.753906 276.929688 312.355469 276.421875 L 312.199219 271.472656 L 315.320312 275.453125 C 316.949219 274.933594 318.5 274.324219 320.082031 273.707031 C 319.1875 275.15625 318.234375 276.574219 317.222656 277.953125 L 320.253906 282.0625 " fill-opacity="1" fill-rule="nonzero"/><path fill="#ffffff" d="M 309.046875 296.097656 L 304.382812 294.050781 L 300.851562 297.757812 L 301.507812 292.726562 L 296.902344 290.523438 C 298.53125 290.25 300.214844 290 301.816406 289.628906 L 302.160156 284.652344 L 304.839844 288.964844 C 306.476562 288.589844 308.160156 288.214844 309.808594 287.78125 L 306.46875 291.664062 L 309.046875 296.097656 " fill-opacity="1" fill-rule="nonzero"/><path fill="#ffffff" d="M 296.367188 308.8125 L 291.925781 306.242188 L 288.054688 309.589844 L 289.222656 304.617188 L 284.898438 301.945312 L 289.882812 301.59375 C 290.246094 299.992188 290.484375 298.292969 290.761719 296.675781 L 292.972656 301.273438 L 298.011719 300.609375 L 294.304688 304.144531 L 296.367188 308.8125 " fill-opacity="1" fill-rule="nonzero"/><path fill="#ffffff" d="M 282.347656 320.039062 L 278.234375 317.015625 C 276.855469 318.019531 275.449219 319 273.996094 319.894531 C 274.621094 318.324219 275.207031 316.75 275.730469 315.121094 L 271.742188 312.007812 L 276.699219 312.160156 C 277.191406 310.554688 277.722656 309.03125 278.136719 307.40625 L 279.824219 312.207031 C 281.523438 312.21875 283.179688 312.136719 284.886719 312.078125 C 283.539062 313.125 282.226562 314.222656 280.8125 315.183594 L 282.347656 320.039062 " fill-opacity="1" fill-rule="nonzero"/><path fill="#ffffff" d="M 267.199219 329.695312 L 263.449219 326.253906 C 261.964844 327.085938 260.417969 327.828125 258.910156 328.617188 L 261.171875 324.089844 L 257.527344 320.507812 C 259.171875 320.8125 260.808594 321.042969 262.453125 321.234375 L 264.398438 316.660156 L 265.539062 321.597656 C 267.210938 321.777344 268.933594 321.988281 270.605469 322.066406 C 269.191406 323.023438 267.664062 323.800781 266.199219 324.671875 L 267.199219 329.695312 " fill-opacity="1" fill-rule="nonzero"/><path fill="#ffffff" d="M 251.089844 337.644531 L 247.726562 333.765625 L 242.957031 335.644531 L 245.6875 331.347656 L 242.46875 327.398438 L 247.300781 328.710938 L 249.722656 324.328125 L 250.316406 329.382812 L 255.308594 330.414062 L 250.640625 332.527344 L 251.089844 337.644531 " fill-opacity="1" fill-rule="nonzero"/><path fill="#ffffff" d="M 234.171875 343.699219 L 231.261719 339.488281 C 229.613281 339.9375 227.988281 340.453125 226.324219 340.851562 C 227.425781 339.574219 228.472656 338.179688 229.511719 336.867188 L 226.753906 332.609375 L 231.398438 334.40625 C 232.40625 333.105469 233.367188 331.730469 234.296875 330.351562 L 234.335938 335.460938 L 239.164062 336.988281 L 234.308594 338.621094 L 234.171875 343.699219 " fill-opacity="1" fill-rule="nonzero"/><path fill="#ffffff" d="M 216.695312 347.863281 L 214.273438 343.367188 C 212.59375 343.6875 210.910156 343.964844 209.210938 344.148438 C 210.449219 342.996094 211.65625 341.832031 212.820312 340.578125 L 210.554688 336.058594 L 214.96875 338.3125 C 216.101562 337.082031 217.226562 335.910156 218.304688 334.648438 L 217.769531 339.695312 C 219.304688 340.472656 220.828125 341.066406 222.402344 341.757812 C 220.738281 342.144531 219.078125 342.542969 217.386719 342.8125 L 216.695312 347.863281 " fill-opacity="1" fill-rule="nonzero"/><path fill="#ffffff" d="M 198.875 350.085938 L 196.960938 345.363281 C 195.257812 345.535156 193.546875 345.496094 191.839844 345.5625 L 195.824219 342.445312 L 194.0625 337.65625 C 195.421875 338.65625 196.796875 339.492188 198.203125 340.402344 L 201.925781 337.117188 L 200.839844 342.0625 C 202.273438 342.957031 203.738281 343.867188 205.214844 344.65625 C 203.527344 344.910156 201.816406 344.976562 200.117188 345.121094 L 198.875 350.085938 " fill-opacity="1" fill-rule="nonzero"/><path fill="#ffffff" d="M 180.921875 350.355469 L 179.53125 345.46875 L 174.421875 345.09375 L 178.722656 342.410156 L 177.488281 337.457031 C 178.734375 338.558594 180.003906 339.65625 181.308594 340.664062 L 185.367188 337.769531 L 183.746094 342.582031 L 187.820312 345.660156 L 182.699219 345.550781 L 180.921875 350.355469 " fill-opacity="1" fill-rule="nonzero"/><path fill="#ffffff" d="M 163.039062 348.691406 L 162.199219 343.636719 L 157.152344 342.738281 L 161.726562 340.503906 L 161.050781 335.457031 L 164.480469 339.097656 L 168.835938 336.628906 L 166.699219 341.246094 L 170.414062 344.742188 L 165.332031 344.097656 L 163.039062 348.691406 " fill-opacity="1" fill-rule="nonzero"/><path fill="#ffffff" d="M 145.449219 345.023438 L 145.171875 339.902344 L 140.25 338.496094 L 145.054688 336.75 L 144.929688 331.671875 L 147.945312 335.648438 C 149.484375 335.078125 151.035156 334.363281 152.539062 333.695312 L 149.902344 338.066406 L 153.21875 341.90625 L 148.222656 340.753906 L 145.449219 345.023438 " fill-opacity="1" fill-rule="nonzero"/><path fill="#ffffff" d="M 128.375 339.425781 L 128.664062 334.328125 C 127.070312 333.707031 125.480469 333.082031 123.9375 332.351562 C 125.589844 332.019531 127.238281 331.640625 128.886719 331.191406 L 129.320312 326.148438 L 131.894531 330.386719 C 133.511719 329.925781 135.070312 329.542969 136.664062 328.996094 L 133.5625 333.035156 C 134.480469 334.464844 135.453125 335.800781 136.4375 337.203125 C 134.824219 336.640625 133.183594 336.148438 131.609375 335.488281 L 128.375 339.425781 " fill-opacity="1" fill-rule="nonzero"/><path fill="#ffffff" d="M 112.019531 332 L 112.859375 326.976562 C 111.335938 326.203125 109.886719 325.296875 108.398438 324.460938 L 113.421875 323.894531 L 114.4375 318.882812 C 115.074219 320.433594 115.785156 321.914062 116.515625 323.402344 L 121.414062 322.539062 L 117.894531 326.1875 C 118.652344 327.699219 119.425781 329.246094 120.269531 330.691406 C 118.695312 330.023438 117.203125 329.1875 115.675781 328.421875 L 112.019531 332 " fill-opacity="1" fill-rule="nonzero"/><path fill="#ffffff" d="M 96.570312 322.835938 L 97.980469 317.902344 L 93.804688 314.933594 L 98.894531 314.875 L 100.441406 310.023438 C 100.9375 311.59375 101.4375 313.199219 101.984375 314.785156 L 106.976562 314.421875 L 103.066406 317.675781 L 104.921875 322.429688 L 100.609375 319.664062 L 96.570312 322.835938 " fill-opacity="1" fill-rule="nonzero"/><path fill="#ffffff" d="M 82.257812 311.984375 L 84.195312 307.242188 C 82.917969 306.109375 81.578125 305.042969 80.355469 303.847656 C 82.011719 304.089844 83.757812 304.191406 85.425781 304.34375 L 87.480469 299.707031 L 88.523438 304.574219 C 90.164062 304.707031 91.832031 304.769531 93.503906 304.789062 L 89.246094 307.613281 L 90.605469 312.492188 L 86.585938 309.316406 L 82.257812 311.984375 " fill-opacity="1" fill-rule="nonzero"/><path fill="#ffffff" d="M 69.210938 299.644531 L 71.636719 295.15625 C 70.433594 293.945312 69.339844 292.632812 68.21875 291.347656 C 69.890625 291.71875 71.488281 292.125 73.167969 292.421875 L 75.726562 288.027344 C 75.839844 289.691406 76.0625 291.296875 76.246094 292.964844 L 81.140625 293.757812 L 76.636719 296.058594 C 76.839844 297.757812 77.136719 299.402344 77.441406 301.074219 C 76.1875 299.914062 74.984375 298.703125 73.820312 297.453125 L 69.210938 299.644531 " fill-opacity="1" fill-rule="nonzero"/><path fill="#ffffff" d="M 57.566406 285.96875 C 58.523438 284.558594 59.464844 283.179688 60.46875 281.777344 L 57.496094 277.601562 L 62.316406 279.207031 L 65.355469 275.109375 C 65.316406 276.753906 65.234375 278.464844 65.292969 280.105469 L 70.113281 281.386719 L 65.371094 283.199219 L 65.582031 288.300781 L 62.410156 284.28125 L 57.566406 285.96875 " fill-opacity="1" fill-rule="nonzero"/><path fill="#ffffff" d="M 47.507812 271.089844 L 50.878906 267.226562 L 48.332031 262.78125 L 52.988281 264.878906 L 56.441406 261.152344 L 55.832031 266.105469 C 57.324219 266.769531 58.953125 267.328125 60.488281 267.910156 L 55.554688 269.199219 L 55.246094 274.273438 L 52.476562 269.957031 L 47.507812 271.089844 " fill-opacity="1" fill-rule="nonzero"/><path fill="#ffffff" d="M 39.164062 255.179688 L 42.925781 251.71875 C 42.210938 250.167969 41.511719 248.609375 40.914062 247.007812 C 42.328125 247.921875 43.769531 248.800781 45.265625 249.625 L 49.089844 246.308594 L 47.984375 251.144531 C 49.46875 251.941406 50.855469 252.753906 52.375 253.46875 L 47.335938 254.203125 C 47.003906 255.867188 46.765625 257.507812 46.496094 259.195312 C 45.730469 257.671875 44.898438 256.175781 44.230469 254.601562 L 39.164062 255.179688 " fill-opacity="1" fill-rule="nonzero"/><path fill="#ffffff" d="M 32.609375 238.453125 L 36.710938 235.433594 C 36.152344 233.820312 35.75 232.160156 35.265625 230.519531 L 39.257812 233.617188 L 43.480469 230.730469 C 42.855469 232.289062 42.339844 233.835938 41.824219 235.417969 L 45.933594 238.210938 L 40.871094 238.378906 C 40.363281 239.992188 39.835938 241.636719 39.4375 243.261719 C 38.773438 241.6875 38.289062 240.046875 37.722656 238.433594 L 32.609375 238.453125 " fill-opacity="1" fill-rule="nonzero"/><path fill="#ffffff" d="M 27.925781 221.101562 L 32.355469 218.554688 L 31.457031 213.511719 L 35.128906 217.027344 L 39.628906 214.625 C 38.890625 216.09375 38.089844 217.601562 37.421875 219.113281 L 41.242188 222.332031 L 36.175781 221.941406 L 34.183594 226.644531 L 33.03125 221.652344 L 27.925781 221.101562 " fill-opacity="1" fill-rule="nonzero"/><path fill="#ffffff" d="M 25.21875 203.34375 L 29.925781 201.300781 L 29.539062 196.191406 L 32.839844 200.082031 L 37.5625 198.191406 L 34.871094 202.414062 C 35.960938 203.652344 37.179688 204.851562 38.316406 206.035156 L 33.308594 205.085938 L 30.851562 209.535156 L 30.203125 204.453125 L 25.21875 203.34375 " fill-opacity="1" fill-rule="nonzero"/><path fill="#ffffff" d="M 24.488281 185.402344 L 29.378906 183.882812 C 29.433594 182.175781 29.4375 180.464844 29.539062 178.757812 C 30.441406 180.191406 31.445312 181.605469 32.398438 182.988281 L 37.285156 181.621094 L 34.1875 185.527344 C 35.128906 186.878906 36.136719 188.203125 37.1875 189.503906 L 32.296875 188.015625 L 29.40625 192.167969 C 29.371094 190.460938 29.296875 188.753906 29.296875 187.042969 L 24.488281 185.402344 " fill-opacity="1" fill-rule="nonzero"/><path fill="#ffffff" d="M 25.699219 167.488281 L 30.714844 166.507812 C 30.925781 164.8125 31.125 163.113281 31.457031 161.4375 C 32.175781 162.957031 32.96875 164.464844 33.804688 165.949219 L 38.796875 165.121094 L 35.328125 168.667969 C 36.171875 170.121094 36.933594 171.539062 37.851562 172.945312 L 33.171875 170.9375 C 32.007812 172.175781 30.957031 173.453125 29.84375 174.75 C 29.980469 173.046875 30.058594 171.339844 30.3125 169.648438 L 25.699219 167.488281 " fill-opacity="1" fill-rule="nonzero"/><path fill="#ffffff" d="M 28.859375 149.804688 L 33.9375 149.378906 C 34.28125 147.703125 34.816406 146.082031 35.265625 144.433594 C 35.859375 146.035156 36.417969 147.601562 37.058594 149.164062 L 42.152344 148.90625 C 40.796875 149.902344 39.59375 150.972656 38.300781 152.039062 L 40.328125 156.566406 L 35.933594 154.0625 C 34.632812 155.164062 33.363281 156.300781 32.167969 157.476562 C 32.429688 155.789062 32.839844 154.128906 33.222656 152.464844 L 28.859375 149.804688 " fill-opacity="1" fill-rule="nonzero"/><path fill="#ffffff" d="M 33.941406 132.570312 L 39.035156 132.710938 L 40.914062 127.941406 L 42.199219 132.855469 L 47.292969 133.164062 C 45.890625 134.03125 44.414062 134.894531 43.078125 135.835938 L 44.636719 140.578125 L 40.523438 137.597656 L 36.363281 140.558594 L 38 135.707031 L 33.941406 132.570312 " fill-opacity="1" fill-rule="nonzero"/><path fill="#ffffff" d="M 40.914062 116.011719 L 45.992188 116.730469 L 48.332031 112.171875 L 49.109375 117.21875 L 54.117188 118.082031 L 49.628906 120.269531 C 49.90625 121.894531 50.316406 123.554688 50.667969 125.15625 L 46.890625 121.730469 L 42.472656 124.234375 L 44.582031 119.566406 L 40.914062 116.011719 " fill-opacity="1" fill-rule="nonzero"/><path fill="#ffffff" d="M 49.699219 100.34375 L 54.652344 101.605469 C 55.566406 100.167969 56.484375 98.722656 57.496094 97.347656 C 57.5 99.03125 57.5625 100.726562 57.683594 102.425781 L 62.550781 103.824219 L 57.894531 105.535156 C 58.03125 107.203125 58.117188 108.816406 58.347656 110.484375 C 57.210938 109.222656 56.0625 107.933594 54.96875 106.660156 C 53.410156 107.292969 51.894531 107.984375 50.328125 108.679688 C 51.199219 107.210938 51.984375 105.6875 52.941406 104.273438 L 49.699219 100.34375 " fill-opacity="1" fill-rule="nonzero"/><path fill="#ffffff" d="M 60.128906 85.722656 L 64.894531 87.507812 C 65.953125 86.164062 67.113281 84.910156 68.21875 83.609375 L 67.816406 88.652344 L 72.539062 90.605469 C 70.894531 90.9375 69.304688 91.347656 67.703125 91.78125 L 67.609375 96.753906 L 64.707031 92.601562 C 63.074219 93.058594 61.414062 93.519531 59.832031 94.066406 C 60.789062 92.652344 61.898438 91.347656 62.9375 89.996094 L 60.128906 85.722656 " fill-opacity="1" fill-rule="nonzero"/><path fill="#ffffff" d="M 72.074219 72.308594 L 76.648438 74.636719 L 80.355469 71.105469 L 79.441406 76.113281 L 83.910156 78.554688 L 78.941406 79.160156 L 78.34375 84.132812 L 75.894531 79.671875 L 70.875 80.589844 L 74.410156 76.878906 L 72.074219 72.308594 " fill-opacity="1" fill-rule="nonzero"/><path fill="#ffffff" d="M 85.457031 60.335938 L 89.742188 63.140625 C 91.097656 62.101562 92.394531 60.980469 93.804688 60.015625 C 93.25 61.59375 92.8125 63.285156 92.351562 64.898438 L 96.507812 67.800781 L 91.535156 67.894531 C 91.09375 69.488281 90.707031 71.101562 90.375 72.738281 L 88.410156 68.023438 L 83.363281 68.429688 L 87.25 65.09375 L 85.457031 60.335938 " fill-opacity="1" fill-rule="nonzero"/><path fill="#ffffff" d="M 100.058594 49.875 L 103.996094 53.113281 C 105.417969 52.160156 106.917969 51.347656 108.398438 50.492188 C 107.707031 52.054688 107.003906 53.554688 106.390625 55.140625 L 110.214844 58.496094 C 108.554688 58.28125 106.941406 58.195312 105.269531 58.0625 L 103.5625 62.714844 L 102.160156 57.855469 C 100.453125 57.730469 98.773438 57.695312 97.085938 57.683594 C 98.457031 56.671875 99.882812 55.730469 101.328125 54.824219 L 100.058594 49.875 " fill-opacity="1" fill-rule="nonzero"/><path fill="#ffffff" d="M 115.710938 41.058594 C 116.914062 42.273438 118.082031 43.460938 119.265625 44.710938 L 123.9375 42.601562 L 121.433594 47.023438 L 124.875 50.789062 C 123.269531 50.4375 121.605469 50.03125 119.988281 49.773438 L 117.804688 54.257812 L 116.933594 49.253906 L 111.886719 48.484375 L 116.441406 46.136719 L 115.710938 41.058594 " fill-opacity="1" fill-rule="nonzero"/><path fill="#ffffff" d="M 132.25 34.042969 L 135.394531 38.097656 L 140.25 36.457031 L 137.292969 40.625 L 140.28125 44.730469 L 135.535156 43.167969 C 134.601562 44.527344 133.742188 46.003906 132.878906 47.398438 L 132.558594 42.3125 L 127.636719 41.027344 L 132.410156 39.148438 L 132.25 34.042969 " fill-opacity="1" fill-rule="nonzero"/><path fill="#ffffff" d="M 149.476562 28.929688 L 152.144531 33.292969 C 153.816406 32.921875 155.464844 32.480469 157.152344 32.214844 C 155.980469 33.410156 154.851562 34.71875 153.746094 35.996094 L 156.265625 40.394531 L 151.730469 38.363281 C 150.65625 39.644531 149.605469 40.875 148.609375 42.230469 L 148.851562 37.128906 L 144.117188 35.347656 C 145.765625 34.90625 147.386719 34.359375 149.058594 34.003906 L 149.476562 28.929688 " fill-opacity="1" fill-rule="nonzero"/><path fill="#ffffff" d="M 167.15625 25.734375 L 169.324219 30.347656 C 171.015625 30.101562 172.71875 29.988281 174.421875 29.859375 C 173.128906 30.984375 171.847656 32.007812 170.617188 33.207031 L 172.636719 37.867188 C 171.226562 36.980469 169.808594 36.195312 168.351562 35.359375 L 164.816406 38.832031 L 165.628906 33.839844 C 164.140625 32.996094 162.640625 32.238281 161.117188 31.507812 C 162.792969 31.179688 164.484375 30.945312 166.183594 30.75 L 167.15625 25.734375 " fill-opacity="1" fill-rule="nonzero"/><path fill="#ffffff" d="M 185.066406 24.488281 L 186.71875 29.296875 C 188.425781 29.265625 190.132812 29.363281 191.839844 29.390625 L 187.691406 32.28125 L 189.191406 37.175781 C 187.890625 36.113281 186.558594 35.144531 185.207031 34.1875 L 181.3125 37.285156 L 182.667969 32.398438 C 181.28125 31.457031 179.871094 30.425781 178.4375 29.554688 C 180.136719 29.417969 181.847656 29.441406 183.554688 29.378906 L 185.066406 24.488281 " fill-opacity="1" fill-rule="nonzero"/><path fill="#ffffff" d="M 203.003906 25.179688 L 204.125 30.15625 L 209.210938 30.800781 L 204.765625 33.257812 L 205.726562 38.273438 C 204.539062 37.132812 203.335938 35.90625 202.09375 34.839844 L 197.882812 37.527344 L 199.765625 32.804688 L 195.863281 29.503906 L 200.972656 29.890625 L 203.003906 25.179688 " fill-opacity="1" fill-rule="nonzero"/><path fill="#ffffff" d="M 220.773438 27.839844 L 221.332031 32.945312 L 226.324219 34.101562 L 221.628906 36.09375 L 222.03125 41.164062 L 218.800781 37.34375 C 217.289062 38.039062 215.789062 38.820312 214.320312 39.566406 L 216.707031 35.066406 L 213.191406 31.390625 L 218.230469 32.292969 C 219.0625 30.804688 219.917969 29.292969 220.773438 27.839844 " fill-opacity="1" fill-rule="nonzero"/><path fill="#ffffff" d="M 238.132812 32.492188 L 238.121094 37.609375 C 239.734375 38.179688 241.382812 38.652344 242.957031 39.308594 C 241.335938 39.703125 239.679688 40.261719 238.074219 40.757812 L 237.917969 45.824219 L 235.117188 41.714844 C 233.542969 42.21875 231.984375 42.761719 230.429688 43.386719 L 233.308594 39.160156 L 230.203125 35.164062 C 231.839844 35.644531 233.5 36.066406 235.125 36.59375 L 238.132812 32.492188 " fill-opacity="1" fill-rule="nonzero"/><path fill="#ffffff" d="M 254.871094 39.015625 L 254.304688 44.082031 C 255.875 44.753906 257.386719 45.554688 258.910156 46.335938 C 257.214844 46.613281 255.585938 46.828125 253.910156 47.195312 L 253.191406 52.222656 C 252.457031 50.730469 251.65625 49.320312 250.859375 47.847656 L 246.027344 48.953125 L 249.332031 45.125 C 248.507812 43.625 247.613281 42.210938 246.703125 40.78125 C 248.304688 41.382812 249.875 42.050781 251.417969 42.777344 L 254.871094 39.015625 " fill-opacity="1" fill-rule="nonzero"/><path fill="#ffffff" d="M 270.796875 47.324219 L 269.679688 52.289062 L 273.996094 55.054688 L 268.929688 55.367188 L 267.648438 60.308594 C 267.070312 58.761719 266.496094 57.160156 265.828125 55.660156 L 260.882812 56.273438 L 264.601562 52.816406 C 263.917969 51.28125 263.230469 49.699219 262.492188 48.171875 L 266.941406 50.703125 L 270.796875 47.324219 " fill-opacity="1" fill-rule="nonzero"/><path fill="#ffffff" d="M 285.703125 57.34375 L 284.023438 62.195312 L 288.054688 65.359375 L 282.949219 65.160156 L 281.144531 69.910156 L 279.855469 65.085938 C 278.207031 65.042969 276.496094 65.125 274.859375 65.160156 L 278.945312 62.117188 L 277.339844 57.292969 L 281.515625 60.265625 L 285.703125 57.34375 " fill-opacity="1" fill-rule="nonzero"/><path fill="#ffffff" d="M 299.398438 68.964844 L 297.214844 73.582031 C 298.460938 74.753906 299.691406 75.933594 300.851562 77.191406 C 299.191406 76.878906 297.523438 76.605469 295.828125 76.402344 L 293.527344 80.914062 L 292.734375 76.015625 C 291.066406 75.832031 289.476562 75.601562 287.796875 75.511719 L 292.191406 72.933594 C 291.871094 71.277344 291.480469 69.65625 291.097656 67.988281 C 292.371094 69.125 293.714844 70.191406 294.925781 71.398438 L 299.398438 68.964844 " fill-opacity="1" fill-rule="nonzero"/><path fill="#ffffff" d="M 311.761719 81.988281 L 309.101562 86.324219 C 310.210938 87.628906 311.226562 89 312.289062 90.332031 L 307.417969 88.976562 L 304.597656 93.242188 C 304.582031 91.566406 304.496094 89.917969 304.367188 88.269531 L 299.5 87.230469 L 304.132812 85.171875 C 303.992188 83.488281 303.867188 81.761719 303.628906 80.105469 C 304.832031 81.3125 305.894531 82.65625 307.03125 83.933594 L 311.761719 81.988281 " fill-opacity="1" fill-rule="nonzero"/><path fill="#ffffff" d="M 322.652344 96.273438 L 319.492188 100.320312 L 322.253906 104.632812 L 317.511719 102.78125 L 314.261719 106.699219 L 314.613281 101.703125 L 309.847656 100.171875 L 314.695312 98.617188 L 314.746094 93.519531 L 317.714844 97.695312 L 322.652344 96.273438 " fill-opacity="1" fill-rule="nonzero"/><path fill="#ffffff" d="M 331.847656 111.703125 L 328.28125 115.371094 C 329.03125 116.902344 329.882812 118.386719 330.558594 119.957031 C 329.117188 119.109375 327.542969 118.359375 326.046875 117.59375 L 322.40625 121.121094 L 323.261719 116.222656 C 321.785156 115.484375 320.277344 114.792969 318.730469 114.152344 L 323.738281 113.132812 L 324.300781 108.097656 C 325.144531 109.582031 326.027344 111.046875 326.832031 112.554688 L 331.847656 111.703125 " fill-opacity="1" fill-rule="nonzero"/><path fill="#ffffff" d="M 339.308594 128.046875 L 335.371094 131.289062 C 336.03125 132.867188 336.554688 134.492188 337.105469 136.109375 C 335.695312 135.132812 334.378906 134.148438 332.925781 133.246094 L 328.898438 136.351562 C 329.417969 134.769531 329.824219 133.199219 330.273438 131.585938 L 326.042969 129.011719 L 331.078125 128.574219 C 331.527344 126.917969 331.878906 125.285156 332.21875 123.625 C 332.949219 125.171875 333.605469 126.742188 334.210938 128.34375 L 339.308594 128.046875 " fill-opacity="1" fill-rule="nonzero"/><path fill="#ffffff" d="M 344.933594 145.109375 L 340.6875 147.890625 L 341.839844 152.878906 L 337.996094 149.574219 L 333.632812 152.21875 C 334.3125 150.707031 334.996094 149.167969 335.566406 147.625 L 331.597656 144.613281 L 336.671875 144.726562 C 337.25 143.152344 337.871094 141.535156 338.398438 139.921875 C 338.914062 141.550781 339.339844 143.203125 339.824219 144.84375 L 344.933594 145.109375 " fill-opacity="1" fill-rule="nonzero"/><path fill="#ffffff" d="M 348.65625 162.6875 L 344.058594 164.988281 L 344.707031 170.074219 L 341.214844 166.367188 L 336.59375 168.511719 L 339.066406 164.152344 L 335.410156 160.726562 L 340.457031 161.394531 L 342.683594 156.816406 L 343.582031 161.859375 L 348.65625 162.6875 " fill-opacity="1" fill-rule="nonzero"/><path fill="#ffffff" d="M 350.355469 180.570312 L 345.550781 182.351562 L 345.679688 187.476562 L 342.578125 183.410156 L 337.769531 185.039062 L 340.664062 180.972656 C 339.660156 179.675781 338.53125 178.410156 337.4375 177.167969 L 342.394531 178.386719 L 345.074219 174.082031 L 345.460938 179.191406 L 350.355469 180.570312 " fill-opacity="1" fill-rule="nonzero"/><path fill="#ffffff" d="M 187.421875 22.46875 C 96.46875 22.46875 22.472656 96.46875 22.472656 187.421875 C 22.472656 278.375 96.46875 352.375 187.421875 352.375 C 278.375 352.375 352.371094 278.375 352.371094 187.421875 C 352.371094 96.46875 278.375 22.46875 187.421875 22.46875 Z M 187.421875 355.738281 C 94.613281 355.738281 19.105469 280.234375 19.105469 187.421875 C 19.105469 94.613281 94.613281 19.105469 187.421875 19.105469 C 280.234375 19.105469 355.738281 94.613281 355.738281 187.421875 C 355.738281 280.234375 280.234375 355.738281 187.421875 355.738281 " fill-opacity="1" fill-rule="nonzero"/><path fill="#ffffff" d="M 187.582031 292.132812 L 190.882812 302.734375 C 194.605469 302.765625 198.328125 303.089844 202.050781 303.253906 L 192.816406 309.304688 L 195.777344 320.066406 C 193.003906 317.675781 190.164062 315.472656 187.273438 313.304688 L 178.570312 319.816406 L 181.847656 309.234375 C 178.882812 307.09375 175.863281 304.753906 172.796875 302.761719 C 176.515625 302.574219 180.25 302.734375 183.972656 302.707031 L 187.582031 292.132812 " fill-opacity="1" fill-rule="nonzero"/><path fill="#ffffff" d="M 156.09375 300.835938 L 157.398438 305.027344 C 158.871094 305.039062 160.34375 305.167969 161.816406 305.230469 L 158.164062 307.625 L 159.332031 311.878906 C 158.234375 310.933594 157.113281 310.0625 155.972656 309.203125 L 152.535156 311.777344 L 153.828125 307.597656 C 152.65625 306.746094 151.464844 305.824219 150.25 305.035156 C 151.722656 304.964844 153.195312 305.027344 154.667969 305.015625 L 156.09375 300.835938 " fill-opacity="1" fill-rule="nonzero"/><path fill="#ffffff" d="M 134.96875 300.667969 L 136.269531 304.855469 C 137.742188 304.871094 139.214844 304.996094 140.683594 305.0625 L 137.035156 307.453125 L 138.207031 311.710938 C 137.109375 310.761719 135.988281 309.890625 134.84375 309.035156 L 131.40625 311.609375 L 132.703125 307.425781 C 131.53125 306.578125 130.335938 305.652344 129.121094 304.867188 C 130.59375 304.792969 132.070312 304.855469 133.542969 304.84375 L 134.96875 300.667969 " fill-opacity="1" fill-rule="nonzero"/><path fill="#ffffff" d="M 220.511719 300.835938 L 219.207031 305.027344 C 217.738281 305.039062 216.269531 305.167969 214.796875 305.230469 L 218.445312 307.625 L 217.273438 311.878906 C 218.371094 310.933594 219.492188 310.0625 220.636719 309.203125 L 224.078125 311.777344 L 222.777344 307.597656 C 223.949219 306.746094 225.144531 305.824219 226.359375 305.035156 C 224.886719 304.964844 223.414062 305.027344 221.941406 305.015625 L 220.511719 300.835938 " fill-opacity="1" fill-rule="nonzero"/><path fill="#ffffff" d="M 239.878906 300.578125 L 238.574219 304.769531 C 237.105469 304.785156 235.632812 304.910156 234.164062 304.976562 L 237.8125 307.367188 L 236.640625 311.625 C 237.742188 310.675781 238.855469 309.804688 240.003906 308.949219 L 243.441406 311.523438 L 242.144531 307.339844 C 243.316406 306.492188 244.511719 305.566406 245.722656 304.78125 C 244.253906 304.707031 242.78125 304.769531 241.308594 304.757812 L 239.878906 300.578125 " fill-opacity="1" fill-rule="nonzero"/><path fill="#ffffff" d="M 282.277344 108.808594 L 294.898438 122.5 L 296.238281 121.269531 C 288.355469 110.355469 282.757812 102.851562 280.179688 99.425781 C 279.324219 98.292969 277.683594 98.148438 276.640625 99.109375 L 105.097656 257.253906 C 103.519531 258.710938 104.507812 261.355469 106.660156 261.414062 C 107.253906 261.429688 107.832031 261.226562 108.285156 260.839844 L 200.804688 181.949219 C 201.082031 181.710938 201.402344 181.542969 201.757812 181.449219 C 203.464844 181.015625 208.878906 180.078125 215.421875 183.410156 C 223.375 187.460938 223.3125 188.5 223.3125 188.5 L 224.207031 187.671875 L 211.585938 173.980469 C 210.777344 173.101562 210.75 171.789062 211.457031 170.878906 L 225.679688 186.3125 L 226.789062 185.292969 L 212.539062 169.835938 L 213.882812 168.597656 L 228.125 184.039062 L 229.253906 182.996094 L 215.011719 167.558594 L 216.339844 166.332031 L 230.589844 181.769531 L 231.714844 180.734375 L 217.464844 165.292969 L 218.839844 164.023438 L 233.054688 179.496094 L 234.179688 178.457031 L 219.96875 162.984375 L 221.25 161.804688 L 235.523438 177.226562 L 236.640625 176.199219 L 222.371094 160.773438 L 223.746094 159.503906 L 237.988281 174.957031 L 239.105469 173.925781 L 224.867188 158.472656 L 226.199219 157.242188 L 240.449219 172.6875 L 241.570312 171.65625 L 227.320312 156.210938 L 228.550781 155.074219 L 242.910156 170.417969 L 244.027344 169.398438 L 229.660156 154.050781 L 231.152344 152.679688 L 245.371094 168.144531 L 246.492188 167.105469 L 232.277344 151.640625 L 233.59375 150.425781 L 247.820312 165.871094 L 248.957031 164.824219 L 234.726562 149.378906 L 236.035156 148.175781 L 250.289062 163.605469 L 251.417969 162.566406 L 237.164062 147.132812 L 238.515625 145.890625 L 252.757812 161.332031 L 253.882812 160.296875 L 239.636719 144.855469 L 240.964844 143.628906 L 255.21875 159.0625 L 256.347656 158.023438 L 242.089844 142.589844 L 243.425781 141.363281 L 257.6875 156.792969 L 258.808594 155.761719 L 244.546875 140.328125 L 245.910156 139.070312 L 260.132812 154.519531 L 261.273438 153.464844 L 247.054688 138.015625 L 248.394531 136.78125 L 262.613281 152.25 L 263.734375 151.214844 L 249.515625 135.75 L 250.824219 134.539062 L 265.078125 149.980469 L 266.195312 148.949219 L 251.945312 133.507812 L 253.316406 132.242188 L 267.546875 147.710938 L 268.660156 146.679688 L 254.4375 131.210938 L 255.765625 129.984375 L 270.015625 145.441406 L 271.121094 144.421875 L 256.871094 128.964844 L 258.253906 127.691406 L 272.46875 143.167969 L 273.585938 142.132812 L 259.378906 126.65625 L 260.675781 125.457031 L 274.921875 140.898438 L 276.046875 139.859375 L 261.804688 124.417969 L 262.9375 123.375 L 277.375 138.625 L 278.507812 137.609375 L 264.054688 122.34375 L 265.515625 120.996094 L 279.835938 136.355469 L 280.972656 135.316406 L 266.652344 119.949219 L 268.003906 118.703125 L 282.296875 134.082031 L 283.4375 133.035156 L 269.144531 117.652344 L 270.546875 116.359375 L 284.78125 131.816406 L 285.902344 130.785156 L 271.660156 115.328125 L 273.003906 114.089844 L 287.257812 129.546875 L 288.359375 128.527344 L 274.113281 113.070312 L 275.472656 111.820312 L 289.714844 127.277344 L 290.824219 126.257812 L 276.574219 110.800781 L 277.933594 109.550781 L 292.183594 125.007812 L 293.285156 123.988281 L 279.046875 108.539062 C 280.015625 107.78125 281.425781 107.886719 282.277344 108.808594 " fill-opacity="1" fill-rule="nonzero"/><path fill="#ffffff" d="M 92.566406 108.808594 L 79.945312 122.5 L 78.609375 121.269531 C 86.492188 110.355469 92.085938 102.851562 94.664062 99.425781 C 95.515625 98.292969 97.160156 98.148438 98.207031 99.109375 L 269.746094 257.253906 C 271.328125 258.710938 270.335938 261.355469 268.183594 261.414062 C 267.589844 261.429688 267.011719 261.226562 266.5625 260.839844 L 174.039062 181.949219 C 173.765625 181.710938 173.445312 181.542969 173.085938 181.449219 C 171.382812 181.015625 165.96875 180.078125 159.421875 183.410156 C 151.472656 187.460938 151.539062 188.5 151.539062 188.5 L 150.636719 187.671875 L 163.257812 173.980469 C 164.066406 173.101562 164.09375 171.789062 163.386719 170.878906 L 149.164062 186.3125 L 148.058594 185.292969 L 162.304688 169.835938 L 160.964844 168.597656 L 146.722656 184.039062 L 145.59375 182.996094 L 159.832031 167.558594 L 158.503906 166.332031 L 144.253906 181.769531 L 143.128906 180.734375 L 157.378906 165.292969 L 156.003906 164.023438 L 141.789062 179.496094 L 140.667969 178.457031 L 154.875 162.984375 L 153.59375 161.804688 L 139.324219 177.226562 L 138.203125 176.199219 L 152.476562 160.773438 L 151.097656 159.503906 L 136.859375 174.957031 L 135.738281 173.925781 L 149.980469 158.472656 L 148.644531 157.242188 L 134.398438 172.6875 L 133.277344 171.65625 L 147.527344 156.210938 L 146.296875 155.074219 L 131.9375 170.417969 L 130.816406 169.398438 L 145.183594 154.050781 L 143.691406 152.679688 L 129.472656 168.144531 L 128.351562 167.105469 L 142.566406 151.640625 L 141.25 150.425781 L 127.023438 165.871094 L 125.886719 164.824219 L 140.117188 149.378906 L 138.808594 148.175781 L 124.554688 163.605469 L 123.425781 162.566406 L 137.679688 147.132812 L 136.328125 145.890625 L 122.085938 161.332031 L 120.960938 160.296875 L 135.207031 144.855469 L 133.878906 143.628906 L 119.628906 159.0625 L 118.5 158.023438 L 132.753906 142.589844 L 131.417969 141.363281 L 117.160156 156.792969 L 116.035156 155.761719 L 130.300781 140.328125 L 128.9375 139.070312 L 114.710938 154.519531 L 113.570312 153.464844 L 127.792969 138.015625 L 126.453125 136.78125 L 112.230469 152.25 L 111.113281 151.214844 L 125.328125 135.75 L 124.019531 134.539062 L 109.769531 149.980469 L 108.648438 148.949219 L 122.902344 133.507812 L 121.527344 132.242188 L 107.300781 147.710938 L 106.183594 146.679688 L 120.40625 131.210938 L 119.078125 129.984375 L 104.832031 145.441406 L 103.722656 144.421875 L 117.972656 128.964844 L 116.589844 127.691406 L 102.378906 143.167969 L 101.257812 142.132812 L 115.46875 126.65625 L 114.171875 125.457031 L 99.925781 140.898438 L 98.796875 139.859375 L 113.039062 124.417969 L 111.90625 123.375 L 97.46875 138.625 L 96.335938 137.609375 L 110.789062 122.34375 L 109.328125 120.996094 L 95.007812 136.355469 L 93.867188 135.316406 L 108.195312 119.949219 L 106.839844 118.703125 L 92.550781 134.082031 L 91.40625 133.035156 L 105.699219 117.652344 L 104.300781 116.359375 L 90.0625 131.816406 L 88.945312 130.785156 L 103.183594 115.328125 L 101.839844 114.089844 L 87.585938 129.546875 L 86.484375 128.527344 L 100.734375 113.070312 L 99.375 111.820312 L 85.125 127.277344 L 84.023438 126.257812 L 98.269531 110.800781 L 96.910156 109.550781 L 82.664062 125.007812 L 81.558594 123.988281 L 95.800781 108.539062 C 94.828125 107.78125 93.417969 107.886719 92.566406 108.808594 " fill-opacity="1" fill-rule="nonzero"/><path fill="#28292a" d="M 215.738281 243.011719 C 214.625 243.011719 213.539062 243.210938 212.515625 243.601562 C 206.773438 245.78125 204.320312 253.402344 207.046875 260.585938 C 209.203125 266.277344 214.195312 270.25 219.1875 270.25 C 220.300781 270.25 221.386719 270.050781 222.410156 269.664062 C 225.160156 268.621094 227.25 266.300781 228.292969 263.125 C 229.359375 259.894531 229.214844 256.179688 227.882812 252.675781 C 225.722656 246.988281 220.726562 243.011719 215.738281 243.011719 Z M 158.941406 243.011719 C 153.851562 243.011719 148.863281 247.121094 146.808594 253 C 144.277344 260.257812 146.933594 267.808594 152.734375 269.835938 C 153.691406 270.167969 154.695312 270.335938 155.722656 270.335938 C 160.808594 270.335938 165.796875 266.230469 167.851562 260.347656 C 169.089844 256.808594 169.132812 253.097656 167.980469 249.894531 C 166.851562 246.75 164.699219 244.484375 161.929688 243.515625 C 160.96875 243.183594 159.964844 243.011719 158.941406 243.011719 Z M 155.695312 275.039062 C 154.152344 275.039062 152.632812 274.785156 151.183594 274.277344 C 147.164062 272.875 144.039062 269.707031 142.382812 265.359375 C 140.742188 261.058594 140.734375 256.117188 142.367188 251.449219 C 144.859375 244.300781 150.90625 239.089844 157.464844 238.394531 C 160.054688 236.109375 162.796875 233.464844 163.851562 231.007812 C 168.574219 220.042969 174.046875 202.136719 174.980469 196.699219 C 176.09375 190.238281 177.332031 183.273438 178.671875 175.988281 C 171.625 146.429688 163.597656 79.339844 166.558594 74.683594 C 166.800781 74.300781 167.105469 74.167969 167.320312 74.125 L 167.398438 74.109375 L 167.515625 74.105469 C 168.453125 74.105469 169.511719 74.105469 175.003906 94.894531 C 177.957031 106.089844 181.746094 121.734375 185.71875 139.183594 C 192.25 106.464844 197.65625 82.929688 200.277344 75.867188 C 200.519531 75.203125 200.730469 74.675781 200.925781 74.265625 L 200.957031 74.28125 C 201.261719 73.6875 201.664062 73.121094 202.300781 73.121094 L 202.375 73.121094 L 202.476562 73.136719 C 202.6875 73.171875 203 73.300781 203.25 73.675781 C 205.371094 76.828125 202.855469 106.1875 202.035156 115.109375 C 200.328125 133.664062 197.257812 159.304688 193.753906 175.753906 C 195.328125 183.203125 196.792969 190.320312 198.109375 196.910156 C 199.191406 202.320312 205.140625 220.074219 210.152344 230.90625 C 211.292969 233.371094 214.121094 235.949219 217.046875 238.378906 C 223.632812 238.992188 229.59375 243.921875 232.285156 251.007812 C 234.039062 255.632812 234.164062 260.570312 232.640625 264.910156 C 231.097656 269.304688 228.058594 272.554688 224.078125 274.0625 C 222.53125 274.652344 220.890625 274.953125 219.214844 274.953125 C 212.183594 274.953125 205.527344 269.847656 202.644531 262.257812 C 199.988281 255.261719 201.128906 247.667969 205.539062 242.832031 C 206.238281 240.058594 206.664062 237.007812 205.269531 233.484375 C 204.371094 231.21875 203.398438 228.742188 202.414062 226.226562 C 199.054688 217.652344 195.25 207.941406 193.976562 205.804688 C 190.902344 200.660156 187.84375 196.214844 186.332031 194.078125 C 184.828125 196.351562 182.09375 200.609375 179.351562 205.484375 C 178.136719 207.652344 174.589844 217.464844 171.460938 226.125 C 170.546875 228.667969 169.640625 231.167969 168.804688 233.453125 C 167.546875 236.894531 167.972656 239.757812 168.65625 242.335938 C 173.3125 246.96875 174.777344 254.796875 172.292969 261.902344 C 169.59375 269.640625 162.765625 275.039062 155.695312 275.039062 " fill-opacity="1" fill-rule="nonzero"/><path fill="#ffffff" d="M 195.371094 205.058594 C 190.746094 197.316406 185.800781 190.65625 185.542969 190.378906 C 181.992188 186.625 177.960938 167.976562 177.402344 166.453125 C 179.976562 179.296875 182.667969 188.882812 185.023438 190.945312 C 185.324219 191.253906 190.039062 197.625 194.714844 205.453125 C 196.003906 207.621094 199.65625 216.933594 203.183594 225.9375 C 204.167969 228.453125 205.140625 230.929688 206.035156 233.191406 C 206.035156 233.191406 196.699219 207.277344 195.371094 205.058594 " fill-opacity="1" fill-rule="nonzero"/><path fill="#ffffff" d="M 222.699219 270.425781 C 216.535156 272.765625 209.167969 268.484375 206.28125 260.878906 C 203.394531 253.269531 206.0625 245.175781 212.226562 242.835938 C 218.394531 240.496094 225.757812 244.78125 228.648438 252.386719 C 231.535156 259.996094 228.867188 268.085938 222.699219 270.425781 Z M 168.625 260.621094 C 165.941406 268.296875 158.691406 272.78125 152.464844 270.605469 C 146.242188 268.429688 143.355469 260.410156 146.039062 252.730469 C 148.722656 245.046875 155.96875 240.570312 162.195312 242.746094 C 168.421875 244.917969 171.304688 252.9375 168.625 260.621094 Z M 231.519531 251.296875 C 228.851562 244.257812 222.863281 239.636719 216.722656 239.171875 C 214.136719 237.03125 210.726562 234.09375 209.414062 231.25 C 204.324219 220.257812 198.410156 202.585938 197.308594 197.070312 C 195.960938 190.324219 194.480469 183.132812 192.917969 175.753906 C 199.628906 144.421875 205.632812 74.527344 202.332031 73.9375 C 202.148438 73.90625 201.910156 74.1875 201.628906 74.757812 C 201.640625 74.703125 201.652344 74.65625 201.664062 74.625 C 201.476562 75.011719 201.269531 75.527344 201.042969 76.152344 C 198.097656 84.082031 191.886719 112.214844 185.777344 143.070312 C 185.691406 142.703125 185.601562 142.332031 185.511719 141.957031 C 177.402344 106.175781 169.339844 74.539062 167.484375 74.925781 C 164.214844 75.597656 171.996094 144.597656 179.503906 175.96875 C 178.179688 183.191406 176.925781 190.226562 175.785156 196.839844 C 174.832031 202.382812 169.394531 220.207031 164.601562 231.332031 C 163.410156 234.097656 160.292969 236.996094 157.804688 239.179688 C 151.609375 239.722656 145.648438 244.53125 143.136719 251.714844 C 139.894531 260.996094 143.625 270.773438 151.453125 273.507812 C 159.277344 276.238281 168.28125 270.914062 171.527344 261.632812 C 174.019531 254.488281 172.378906 247.054688 167.929688 242.765625 C 167.125 239.808594 166.734375 236.75 168.039062 233.171875 C 171.839844 222.777344 177.039062 207.9375 178.640625 205.082031 C 181.515625 199.960938 184.503906 195.324219 186.308594 192.640625 C 188.128906 195.167969 191.457031 200 194.675781 205.386719 C 196.355469 208.199219 201.953125 222.894531 206.027344 233.183594 C 207.503906 236.90625 207.082031 240.113281 206.28125 243.234375 C 202.109375 247.671875 200.769531 255.015625 203.410156 261.964844 C 206.894531 271.15625 216.039062 276.242188 223.789062 273.300781 C 231.542969 270.359375 235.007812 260.488281 231.519531 251.296875 " fill-opacity="1" fill-rule="nonzero"/><path fill="#28292a" d="M 186.679688 182.851562 C 186.277344 182.925781 185.878906 182.917969 185.503906 182.84375 C 185.160156 182.773438 184.835938 182.644531 184.539062 182.46875 C 183.824219 182.046875 183.300781 181.339844 183.144531 180.472656 C 182.847656 178.859375 183.953125 177.300781 185.613281 177 C 185.945312 176.941406 186.265625 176.9375 186.582031 176.980469 C 186.902344 177.023438 187.214844 177.113281 187.503906 177.25 C 188.339844 177.648438 188.976562 178.417969 189.148438 179.378906 C 189.441406 180.996094 188.335938 182.550781 186.679688 182.851562 " fill-opacity="1" fill-rule="nonzero"/><path fill="#ffffff" d="M 187.503906 177.25 C 187.25 177.945312 185.90625 181.71875 185.503906 182.84375 C 185.160156 182.773438 184.835938 182.644531 184.539062 182.46875 C 185.167969 180.84375 186.355469 177.644531 186.582031 176.980469 C 186.902344 177.023438 187.214844 177.113281 187.503906 177.25 " fill-opacity="1" fill-rule="nonzero"/></svg>