<svg xmlns="http://www.w3.org/2000/svg" xmlns:xlink="http://www.w3.org/1999/xlink" width="500" zoomAndPan="magnify" viewBox="0 0 375 374.999991" height="500" preserveAspectRatio="xMidYMid meet" version="1.0"><defs><clipPath id="481b595fbb"><path d="M 13.707031 13.707031 L 360.957031 13.707031 L 360.957031 360.957031 L 13.707031 360.957031 Z M 13.707031 13.707031 " clip-rule="nonzero"/></clipPath></defs><rect x="-37.5" width="450" fill="#ffffff" y="-37.499999" height="449.999989" fill-opacity="1"/><rect x="-37.5" width="450" fill="#ffffff" y="-37.499999" height="449.999989" fill-opacity="1"/><g clip-path="url(#481b595fbb)"><path fill="#000000" d="M 187.332031 13.707031 C 91.488281 13.707031 13.707031 91.488281 13.707031 187.332031 C 13.707031 283.171875 91.488281 360.957031 187.332031 360.957031 C 283.171875 360.957031 360.957031 283.171875 360.957031 187.332031 C 360.957031 91.488281 283.171875 13.707031 187.332031 13.707031 Z M 187.332031 83.15625 C 210.132812 83.15625 228.652344 101.675781 228.652344 124.480469 C 228.652344 147.28125 210.132812 165.917969 187.332031 165.917969 C 164.527344 165.917969 146.007812 147.28125 146.007812 124.480469 C 146.007812 101.675781 164.527344 83.15625 187.332031 83.15625 Z M 239.1875 291.503906 L 135.476562 291.503906 C 119.386719 291.503906 106.304688 278.425781 106.304688 262.335938 C 106.304688 217.65625 142.652344 181.3125 187.332031 181.3125 C 232.011719 181.3125 268.355469 217.65625 268.355469 262.335938 C 268.355469 278.425781 255.277344 291.503906 239.1875 291.503906 Z M 239.1875 291.503906 " fill-opacity="1" fill-rule="nonzero"/></g></svg>